<svg xmlns="http://www.w3.org/2000/svg" width="36" height="36" viewBox="0 0 24 24" role="img" aria-labelledby="title">
  <title>WhatsApp</title>
  <path fill="#25D366" d="M12 2a10 10 0 0 0-8.7 14.9L2 22l5.2-1.3A10 10 0 1 0 12 2Zm0 18.2a8.2 8.2 0 0 1-4.2-1.2l-.3-.2-3.1.8.8-3-.2-.3A8.2 8.2 0 1 1 12 20.2Z"/>
  <path fill="#25D366" d="M16.8 14.3c-.3-.2-1.7-.8-2-.9-.3-.1-.5-.2-.7.2s-.8.9-.9 1.1c-.2.2-.3.2-.6.1a6.7 6.7 0 0 1-2-1.2 7.4 7.4 0 0 1-1.4-1.8c-.1-.3 0-.4.1-.5l.5-.6c.1-.2.2-.3.3-.5l.1-.4c0-.1-.7-1.8-1-2.4-.2-.6-.5-.5-.7-.5h-.6c-.2 0-.5.1-.7.3-.2.2-.9.9-.9 2.1s.9 2.4 1 2.6c.1.2 1.8 2.8 4.3 3.9.6.3 1.1.5 1.5.6.6.2 1.2.2 1.6.1.5-.1 1.7-.7 1.9-1.4.2-.7.2-1.3.1-1.4-.1-.1-.3-.2-.6-.4Z"/>
</svg>
